<svg xmlns="http://www.w3.org/2000/svg" xmlns:xlink="http://www.w3.org/1999/xlink" width="1920" zoomAndPan="magnify" viewBox="0 0 1440 809.999993" height="1080" preserveAspectRatio="xMidYMid meet" version="1.0"><defs><clipPath id="5d7cf0844f"><path d="M 0 339 L 1440 339 L 1440 810 L 0 810 Z M 0 339 " clip-rule="nonzero"/></clipPath><clipPath id="c684485e1f"><path d="M -411.527344 314.644531 L 1199.324219 -195.667969 L 1551.988281 917.554688 L -58.859375 1427.867188 Z M -411.527344 314.644531 " clip-rule="nonzero"/></clipPath><clipPath id="5a57b4d89b"><path d="M -411.527344 314.644531 L 1199.324219 -195.667969 L 1551.988281 917.554688 L -58.859375 1427.867188 Z M -411.527344 314.644531 " clip-rule="nonzero"/></clipPath><clipPath id="435a583eb6"><path d="M 65 0 L 1440 0 L 1440 429 L 65 429 Z M 65 0 " clip-rule="nonzero"/></clipPath><clipPath id="41b9ad8dec"><path d="M 2017 461.113281 L 396.523438 939.984375 L 65.585938 -179.890625 L 1686.0625 -658.761719 Z M 2017 461.113281 " clip-rule="nonzero"/></clipPath><clipPath id="42646c0f03"><path d="M 2017 461.113281 L 396.523438 939.984375 L 65.585938 -179.890625 L 1686.0625 -658.761719 Z M 2017 461.113281 " clip-rule="nonzero"/></clipPath></defs><rect x="-144" width="1728" fill="#ffffff" y="-80.999999" height="971.999992" fill-opacity="1"/><rect x="-144" width="1728" fill="#14213d" y="-80.999999" height="971.999992" fill-opacity="1"/><g clip-path="url(#5d7cf0844f)"><g clip-path="url(#c684485e1f)"><g clip-path="url(#5a57b4d89b)"><path fill="#282d64" d="M -362.421875 447.613281 C -362.421875 447.613281 42.695312 170.746094 310.449219 504.488281 C 578.203125 838.230469 645.058594 655.027344 915.074219 633.621094 C 1185.085938 612.214844 1551.976562 917.925781 1551.976562 917.925781 L -58.542969 1428.136719 Z M -362.421875 447.613281 " fill-opacity="1" fill-rule="nonzero"/></g></g></g><g clip-path="url(#435a583eb6)"><g clip-path="url(#41b9ad8dec)"><g clip-path="url(#42646c0f03)"><path fill="#282d64" d="M 1970.492188 327.214844 C 1970.492188 327.214844 1560.0625 596.144531 1298.855469 257.253906 C 1037.644531 -81.632812 967.238281 100.234375 696.859375 116.382812 C 426.480469 132.527344 65.609375 -180.265625 65.609375 -180.265625 L 1685.75 -659.039062 Z M 1970.492188 327.214844 " fill-opacity="1" fill-rule="nonzero"/></g></g></g></svg>