<svg xmlns="http://www.w3.org/2000/svg" xmlns:xlink="http://www.w3.org/1999/xlink" width="500" zoomAndPan="magnify" viewBox="0 0 375 374.999991" height="500" preserveAspectRatio="xMidYMid meet" version="1.0"><defs><g/></defs><path stroke-linecap="butt" transform="matrix(4.419695, 0, 0, 4.419695, 37.500002, 84.931876)" fill="none" stroke-linejoin="miter" d="M 21.599872 48.518127 C 17.433507 47.672304 17.277953 24.73078 17.225807 24.365759 C 17.277953 23.663116 17.017224 23.246833 16.639829 22.972846 C 15.142625 21.905182 5.546904 33.636231 1.380539 38.818115 C -0.208584 40.68034 -0.481687 41.695859 -0.208584 41.80015 C 0.325248 42.073253 0.638123 41.956588 1.445058 41.214172 C 2.083182 40.576049 3.033297 39.990071 4.634794 39.990071 C 6.991963 39.990071 5.494758 42.177545 9.491429 42.177545 C 11.783195 42.229691 13.541128 37.373056 14.243772 34.976998 C 14.348063 34.651749 14.243772 34.391904 14.191626 34.339758 C 14.074961 34.287612 13.918523 34.339758 13.814231 34.703895 C 11.249362 39.664822 5.80675 36.787078 3.841116 37.854742 C 2.135328 38.765969 3.567129 37.373056 4.048816 36.734932 C 5.065218 35.459568 16.001706 22.179169 16.053851 23.936219 C 16.053851 23.988365 14.881896 48.258282 10.454801 48.622419 C 10.025261 48.792114 10.129552 49.104105 10.454801 49.104105 C 10.559093 49.104105 21.547726 48.999813 21.652018 48.999813 C 21.912747 48.999813 22.030296 48.674565 21.599872 48.518127 Z M 43.089266 29.96481 C 42.451143 31.51416 41.969456 30.980328 41.279187 29.691707 C 41.331332 29.691707 41.331332 29.639561 41.331332 29.639561 C 41.279187 29.587415 41.279187 29.587415 41.227041 29.587415 C 38.284777 24.092656 34.613356 21.593191 29.913158 23.884073 C 24.795794 26.488714 23.572576 31.722743 24.158554 36.89137 C 24.483803 39.990071 25.915604 43.987625 26.553728 41.956588 C 27.517101 39.716968 27.621392 41.643713 30.499136 45.158697 C 33.597837 48.895522 36.045157 49.858894 39.781982 48.036441 C 44.8472 45.432683 46.070418 40.146508 45.536586 35.029144 C 45.172449 31.930443 43.72739 27.933773 43.089266 29.96481 Z M 37.386808 46.122953 C 35.837458 47.502609 33.597837 47.672304 31.892049 45.744675 C 27.08756 40.419611 30.08197 27.777335 32.269444 25.798444 C 35.459179 22.868554 39.938419 26.123693 40.055969 31.136765 C 40.263668 34.925736 40.159376 43.5572 37.386808 46.122953 Z M 67.675594 48.518127 C 63.509229 47.672304 63.352791 24.73078 63.300645 24.365759 C 63.352791 23.663116 63.092946 23.246833 62.714667 22.972846 C 61.217463 21.905182 51.621742 33.636231 47.455377 38.818115 C 45.867138 40.68034 45.594035 41.695859 45.867138 41.80015 C 46.40097 42.073253 46.713845 41.956588 47.52078 41.214172 C 48.158904 40.576049 49.109019 39.990071 50.710515 39.990071 C 53.066801 39.990071 51.569596 42.177545 55.56715 42.177545 C 57.858916 42.229691 59.615966 37.373056 60.319493 34.976998 C 60.423785 34.651749 60.319493 34.391904 60.267347 34.339758 C 60.149798 34.287612 59.994245 34.339758 59.889953 34.703895 C 57.325084 39.664822 51.882471 36.787078 49.915954 37.854742 C 48.21105 38.765969 49.642851 37.373056 50.124537 36.734932 C 51.140056 35.459568 62.077427 22.179169 62.128689 23.936219 C 62.128689 23.988365 60.957617 48.258282 56.530523 48.622419 C 56.100982 48.792114 56.205274 49.104105 56.530523 49.104105 C 56.634814 49.104105 67.623448 48.999813 67.72774 48.999813 C 67.988469 48.999813 68.105134 48.674565 67.675594 48.518127 Z M 67.675594 48.518127 " stroke="#606060" stroke-width="2.066665" stroke-opacity="1" stroke-miterlimit="4"/><g fill="#a6a6a6" fill-opacity="1"><g transform="translate(37.500002, 301.496919)"><g><path d="M 95.460938 -2.121094 C 77.074219 -5.890625 76.367188 -107.246094 76.132812 -108.894531 C 76.367188 -111.957031 75.1875 -113.84375 73.539062 -115.023438 C 66.941406 -119.738281 24.511719 -67.882812 6.128906 -45.019531 C -0.941406 -36.769531 -2.121094 -32.292969 -0.941406 -31.820312 C 1.414062 -30.640625 2.828125 -31.113281 6.363281 -34.414062 C 9.191406 -37.242188 13.433594 -39.832031 20.507812 -39.832031 C 30.878906 -39.832031 24.277344 -30.167969 41.953125 -30.167969 C 52.089844 -29.933594 59.867188 -51.382812 62.933594 -61.988281 C 63.402344 -63.402344 62.933594 -64.582031 62.695312 -64.816406 C 62.226562 -65.054688 61.519531 -64.816406 61.046875 -63.167969 C 49.734375 -41.246094 25.691406 -53.976562 16.96875 -49.261719 C 9.429688 -45.253906 15.792969 -51.382812 17.914062 -54.210938 C 22.390625 -59.867188 70.710938 -118.558594 70.945312 -110.78125 C 70.945312 -110.542969 65.761719 -3.300781 46.199219 -1.648438 C 44.3125 -0.941406 44.785156 0.472656 46.199219 0.472656 C 46.667969 0.472656 95.222656 0 95.695312 0 C 96.875 0 97.34375 -1.414062 95.460938 -2.121094 Z M 95.460938 -2.121094 "/></g></g></g><g fill="#a6a6a6" fill-opacity="1"><g transform="translate(141.912254, 301.496919)"><g><path d="M 86.03125 -84.144531 C 83.203125 -77.308594 81.082031 -79.667969 78.015625 -85.324219 C 78.253906 -85.324219 78.253906 -85.558594 78.253906 -85.558594 C 78.015625 -85.796875 78.015625 -85.796875 77.78125 -85.796875 C 64.816406 -110.074219 48.554688 -121.152344 27.8125 -111.015625 C 5.183594 -99.464844 -0.234375 -76.367188 2.355469 -53.503906 C 3.769531 -39.832031 10.136719 -22.15625 12.964844 -31.113281 C 17.207031 -41.011719 17.675781 -32.527344 30.40625 -16.96875 C 44.078125 -0.472656 54.917969 3.769531 71.417969 -4.242188 C 93.808594 -15.792969 99.230469 -39.125 96.875 -61.753906 C 95.222656 -75.425781 88.859375 -93.101562 86.03125 -84.144531 Z M 60.8125 -12.726562 C 53.976562 -6.601562 44.078125 -5.890625 36.535156 -14.378906 C 15.320312 -37.949219 28.519531 -93.808594 38.183594 -102.53125 C 52.324219 -115.496094 72.125 -101.117188 72.597656 -78.960938 C 73.539062 -62.226562 73.066406 -24.042969 60.8125 -12.726562 Z M 60.8125 -12.726562 "/></g></g></g><g fill="#a6a6a6" fill-opacity="1"><g transform="translate(241.139312, 301.496919)"><g><path d="M 95.460938 -2.121094 C 77.074219 -5.890625 76.367188 -107.246094 76.132812 -108.894531 C 76.367188 -111.957031 75.1875 -113.84375 73.539062 -115.023438 C 66.941406 -119.738281 24.511719 -67.882812 6.128906 -45.019531 C -0.941406 -36.769531 -2.121094 -32.292969 -0.941406 -31.820312 C 1.414062 -30.640625 2.828125 -31.113281 6.363281 -34.414062 C 9.191406 -37.242188 13.433594 -39.832031 20.507812 -39.832031 C 30.878906 -39.832031 24.277344 -30.167969 41.953125 -30.167969 C 52.089844 -29.933594 59.867188 -51.382812 62.933594 -61.988281 C 63.402344 -63.402344 62.933594 -64.582031 62.695312 -64.816406 C 62.226562 -65.054688 61.519531 -64.816406 61.046875 -63.167969 C 49.734375 -41.246094 25.691406 -53.976562 16.96875 -49.261719 C 9.429688 -45.253906 15.792969 -51.382812 17.914062 -54.210938 C 22.390625 -59.867188 70.710938 -118.558594 70.945312 -110.78125 C 70.945312 -110.542969 65.761719 -3.300781 46.199219 -1.648438 C 44.3125 -0.941406 44.785156 0.472656 46.199219 0.472656 C 46.667969 0.472656 95.222656 0 95.695312 0 C 96.875 0 97.34375 -1.414062 95.460938 -2.121094 Z M 95.460938 -2.121094 "/></g></g></g><g fill="#ffffff" fill-opacity="1"><g transform="translate(117.924821, 332.260687)"><g><path d="M 18.929688 -11.402344 C 19.15625 -11.496094 19.128906 -11.664062 19.019531 -11.664062 L 16.257812 -11.664062 C 16.121094 -11.664062 16.089844 -11.480469 16.242188 -11.433594 C 16.683594 -11.328125 16.578125 -11.113281 16.578125 -10.714844 L 16.652344 -4.257812 C 16.652344 -4 16.347656 -3.863281 16.164062 -4.03125 C 13.90625 -6.058594 8.394531 -10.472656 3.832031 -11.082031 C 3.679688 -11.097656 3.527344 -11.128906 3.527344 -11.234375 C 3.511719 -11.371094 3.710938 -11.449219 3.832031 -11.480469 C 3.984375 -11.523438 3.953125 -11.664062 3.832031 -11.664062 L 1.113281 -11.664062 C 1.054688 -11.648438 0.960938 -11.523438 1.128906 -11.464844 C 1.328125 -11.355469 1.449219 -11.1875 1.480469 -10.960938 C 1.542969 -10.503906 1.527344 -1.617188 1.527344 -1.144531 C 1.511719 -0.746094 1.496094 -0.414062 1.082031 -0.230469 C 1.039062 -0.214844 0.929688 -0.167969 0.960938 -0.078125 C 0.992188 0 0.992188 0.015625 1.070312 0.015625 C 1.359375 0 3.191406 0.015625 3.738281 0.015625 C 3.9375 0.015625 3.894531 -0.136719 3.785156 -0.183594 C 3.558594 -0.273438 3.34375 -0.625 3.34375 -0.929688 C 3.3125 -1.40625 3.402344 -7.921875 3.402344 -8.472656 C 3.402344 -8.761719 3.570312 -8.898438 3.863281 -8.855469 C 7.585938 -8.808594 14.714844 -3.175781 16.472656 -0.671875 C 16.59375 -0.503906 16.515625 -0.289062 16.320312 -0.230469 C 16.304688 -0.214844 16.289062 -0.214844 16.273438 -0.199219 C 16.074219 -0.167969 16.089844 0.015625 16.210938 0.015625 L 18.960938 0.015625 C 19.066406 0.015625 19.097656 -0.167969 18.960938 -0.183594 C 18.578125 -0.273438 18.5625 -0.488281 18.5625 -0.855469 C 18.5625 -1.328125 18.5625 -10.320312 18.578125 -10.824219 C 18.578125 -11.066406 18.652344 -11.3125 18.929688 -11.402344 Z M 18.929688 -11.402344 "/></g></g></g><g fill="#ffffff" fill-opacity="1"><g transform="translate(138.01237, 332.260687)"><g><path d="M 10.578125 -12.121094 C 5.128906 -12.121094 0.703125 -9.359375 0.703125 -5.96875 C 0.703125 -2.578125 5.128906 0.183594 10.578125 0.183594 C 16.042969 0.183594 20.46875 -2.578125 20.46875 -5.96875 C 20.46875 -9.359375 16.042969 -12.121094 10.578125 -12.121094 Z M 10.578125 -1.617188 C 6.226562 -1.617188 2.6875 -3.570312 2.6875 -5.96875 C 2.6875 -8.367188 6.226562 -10.320312 10.578125 -10.320312 C 14.945312 -10.320312 18.484375 -8.367188 18.484375 -5.96875 C 18.484375 -3.570312 14.945312 -1.617188 10.578125 -1.617188 Z M 10.578125 -1.617188 "/></g></g></g><g fill="#ffffff" fill-opacity="1"><g transform="translate(159.198931, 332.260687)"><g><path d="M 20.652344 -11.035156 C 20.652344 -11.21875 20.609375 -11.296875 20.410156 -11.296875 C 19.875 -11.28125 1.878906 -11.28125 1.054688 -11.28125 C 0.734375 -11.28125 0.703125 -11.25 0.703125 -10.914062 C 0.6875 -10.242188 0.703125 -9.554688 0.703125 -8.867188 C 0.703125 -8.808594 0.703125 -8.746094 0.761719 -8.746094 C 0.824219 -8.746094 0.824219 -8.808594 0.839844 -8.855469 C 0.960938 -9.265625 1.160156 -9.402344 1.574219 -9.386719 C 1.738281 -9.386719 12.167969 -9.402344 12.472656 -9.371094 C 12.671875 -9.359375 12.761719 -9.265625 12.777344 -9.097656 C 12.808594 -8.777344 12.808594 -1.433594 12.808594 -0.960938 C 12.792969 -0.550781 12.792969 -0.398438 12.394531 -0.199219 C 12.347656 -0.183594 12.242188 -0.152344 12.273438 -0.078125 C 12.289062 0.015625 12.378906 0 12.457031 0 C 12.714844 0 14.457031 0 15.035156 0 C 15.128906 0 15.25 0.03125 15.28125 -0.078125 C 15.324219 -0.183594 15.171875 -0.183594 15.082031 -0.230469 C 14.808594 -0.367188 14.699219 -0.65625 14.699219 -0.929688 C 14.699219 -1.128906 14.699219 -8.472656 14.699219 -8.992188 C 14.714844 -9.265625 14.824219 -9.371094 15.113281 -9.371094 C 15.984375 -9.371094 19.035156 -9.371094 19.691406 -9.371094 C 20.105469 -9.371094 20.441406 -9.296875 20.515625 -8.792969 C 20.515625 -8.6875 20.652344 -8.6875 20.652344 -8.792969 C 20.652344 -9.035156 20.652344 -10.546875 20.652344 -11.035156 Z M 20.652344 -11.035156 "/></g></g></g><g fill="#ffffff" fill-opacity="1"><g transform="translate(180.583928, 332.260687)"><g/></g></g><g fill="#ffffff" fill-opacity="1"><g transform="translate(191.192476, 332.260687)"><g><path d="M 21.507812 -11.3125 C 21.507812 -11.496094 21.460938 -11.570312 21.265625 -11.554688 C 20.835938 -11.554688 8.824219 -11.554688 3.9375 -11.554688 C 3.921875 -11.554688 3.90625 -11.554688 3.878906 -11.554688 L 1.175781 -11.554688 C 0.992188 -11.554688 0.976562 -11.433594 1.144531 -11.371094 C 1.464844 -11.21875 1.496094 -11.019531 1.511719 -10.746094 L 1.511719 -4.410156 C 1.511719 -2.734375 1.511719 -1.328125 1.511719 -1.160156 C 1.511719 -0.777344 1.585938 -0.257812 1.054688 -0.136719 C 0.914062 -0.105469 0.871094 0.046875 1.070312 0.046875 L 3.769531 0.046875 C 3.953125 0.046875 3.953125 -0.0898438 3.785156 -0.152344 C 3.464844 -0.289062 3.433594 -0.503906 3.417969 -0.761719 L 3.433594 -4.046875 C 3.433594 -4.242188 3.585938 -4.410156 3.785156 -4.410156 C 5.878906 -4.410156 14.136719 -4.394531 14.59375 -4.394531 C 15.003906 -4.394531 15.355469 -4.320312 15.417969 -3.816406 C 15.433594 -3.710938 15.554688 -3.710938 15.554688 -3.800781 C 15.554688 -3.90625 15.554688 -4.257812 15.554688 -4.65625 L 15.554688 -4.6875 C 15.554688 -4.839844 15.554688 -5.082031 15.554688 -5.359375 C 15.554688 -5.632812 15.554688 -5.878906 15.554688 -6.03125 C 15.554688 -6.046875 15.554688 -6.046875 15.554688 -6.058594 C 15.554688 -6.457031 15.554688 -6.808594 15.554688 -6.914062 C 15.554688 -7.007812 15.433594 -7.023438 15.417969 -6.898438 C 15.355469 -6.394531 15.003906 -6.320312 14.59375 -6.320312 C 14.136719 -6.320312 5.878906 -6.320312 3.785156 -6.304688 C 3.585938 -6.304688 3.433594 -6.472656 3.433594 -6.671875 C 3.433594 -7.617188 3.433594 -8.503906 3.433594 -9.175781 C 3.433594 -9.449219 3.648438 -9.664062 3.90625 -9.664062 C 6.167969 -9.664062 10.410156 -9.664062 12.347656 -9.648438 L 16.960938 -9.648438 C 18.226562 -9.648438 20.058594 -9.648438 20.5625 -9.648438 C 20.957031 -9.648438 21.308594 -9.570312 21.371094 -9.066406 C 21.386719 -8.960938 21.507812 -8.960938 21.507812 -9.050781 C 21.507812 -9.296875 21.507812 -10.808594 21.507812 -11.3125 Z M 21.507812 -11.3125 "/></g></g></g><g fill="#ffffff" fill-opacity="1"><g transform="translate(213.203301, 332.260687)"><g><path d="M 10.578125 -12.121094 C 5.128906 -12.121094 0.703125 -9.359375 0.703125 -5.96875 C 0.703125 -2.578125 5.128906 0.183594 10.578125 0.183594 C 16.042969 0.183594 20.46875 -2.578125 20.46875 -5.96875 C 20.46875 -9.359375 16.042969 -12.121094 10.578125 -12.121094 Z M 10.578125 -1.617188 C 6.226562 -1.617188 2.6875 -3.570312 2.6875 -5.96875 C 2.6875 -8.367188 6.226562 -10.320312 10.578125 -10.320312 C 14.945312 -10.320312 18.484375 -8.367188 18.484375 -5.96875 C 18.484375 -3.570312 14.945312 -1.617188 10.578125 -1.617188 Z M 10.578125 -1.617188 "/></g></g></g><g fill="#ffffff" fill-opacity="1"><g transform="translate(234.389862, 332.260687)"><g><path d="M 19.464844 -11.523438 L 16.746094 -11.523438 C 16.5625 -11.523438 16.59375 -11.386719 16.730469 -11.355469 C 16.808594 -11.34375 16.867188 -11.328125 16.914062 -11.296875 C 17.265625 -11.097656 17.203125 -10.671875 17.1875 -10.320312 C 17.1875 -10.242188 17.203125 -9.90625 17.203125 -9.386719 L 17.203125 -5.3125 C 17.1875 -3.375 15.617188 -1.800781 13.675781 -1.785156 C 12.546875 -1.785156 11.34375 -1.769531 10.167969 -1.769531 C 8.992188 -1.769531 7.753906 -1.769531 6.609375 -1.769531 C 4.65625 -1.785156 3.066406 -3.359375 3.066406 -5.296875 L 3.066406 -9.386719 C 3.066406 -9.90625 3.066406 -10.242188 3.066406 -10.320312 C 3.066406 -10.671875 2.992188 -11.097656 3.34375 -11.296875 C 3.390625 -11.328125 3.449219 -11.34375 3.527344 -11.355469 C 3.664062 -11.386719 3.695312 -11.523438 3.511719 -11.523438 L 0.808594 -11.523438 C 0.625 -11.523438 0.609375 -11.402344 0.777344 -11.34375 C 0.839844 -11.3125 0.871094 -11.296875 0.914062 -11.265625 C 1.113281 -11.128906 1.128906 -10.945312 1.144531 -10.714844 L 1.144531 -5.3125 C 1.144531 -2.351562 3.558594 0.0625 6.519531 0.0625 L 13.738281 0.0625 C 16.714844 0.0625 19.113281 -2.351562 19.113281 -5.3125 L 19.113281 -10.714844 C 19.128906 -10.945312 19.140625 -11.128906 19.339844 -11.265625 C 19.386719 -11.296875 19.433594 -11.3125 19.476562 -11.34375 C 19.644531 -11.402344 19.632812 -11.523438 19.464844 -11.523438 Z M 19.464844 -11.523438 "/></g></g></g><g fill="#ffffff" fill-opacity="1"><g transform="translate(254.721623, 332.260687)"><g><path d="M 18.667969 -11.386719 C 18.898438 -11.464844 18.882812 -11.632812 18.761719 -11.632812 L 15.996094 -11.632812 C 15.859375 -11.632812 15.84375 -11.449219 15.996094 -11.417969 C 16.425781 -11.3125 16.332031 -11.082031 16.332031 -10.699219 L 16.394531 -4.242188 C 16.410156 -3.984375 16.105469 -3.847656 15.90625 -4.015625 C 13.664062 -6.046875 8.136719 -10.441406 3.570312 -11.066406 C 3.433594 -11.066406 3.265625 -11.113281 3.265625 -11.203125 C 3.25 -11.34375 3.449219 -11.417969 3.570312 -11.464844 C 3.726562 -11.511719 3.710938 -11.632812 3.570312 -11.632812 L 0.855469 -11.632812 C 0.792969 -11.632812 0.703125 -11.511719 0.871094 -11.433594 C 1.070312 -11.328125 1.207031 -11.175781 1.222656 -10.945312 C 1.28125 -10.488281 1.28125 -1.601562 1.265625 -1.128906 C 1.265625 -0.734375 1.238281 -0.398438 0.824219 -0.214844 C 0.777344 -0.183594 0.671875 -0.152344 0.703125 -0.0625 C 0.734375 0.03125 0.734375 0.03125 0.808594 0.03125 C 1.113281 0.015625 2.929688 0.03125 3.496094 0.03125 C 3.679688 0.03125 3.632812 -0.121094 3.527344 -0.167969 C 3.296875 -0.257812 3.082031 -0.609375 3.082031 -0.914062 C 3.066406 -1.390625 3.144531 -7.90625 3.144531 -8.457031 C 3.144531 -8.746094 3.3125 -8.882812 3.601562 -8.839844 C 7.34375 -8.777344 14.457031 -3.160156 16.226562 -0.65625 C 16.332031 -0.488281 16.257812 -0.257812 16.058594 -0.199219 C 16.042969 -0.199219 16.027344 -0.199219 16.011719 -0.183594 C 15.828125 -0.152344 15.828125 0.03125 15.96875 0.03125 L 18.699219 0.03125 C 18.804688 0.03125 18.851562 -0.136719 18.699219 -0.167969 C 18.316406 -0.257812 18.316406 -0.472656 18.304688 -0.839844 C 18.304688 -1.3125 18.316406 -10.289062 18.316406 -10.808594 C 18.316406 -11.050781 18.394531 -11.296875 18.667969 -11.386719 Z M 18.667969 -11.386719 "/></g></g></g><g fill="#ffffff" fill-opacity="1"><g transform="translate(274.29019, 332.260687)"><g><path d="M 9.386719 -11.664062 C 8.839844 -11.664062 4.214844 -11.664062 3.191406 -11.664062 L 2.167969 -11.664062 C 1.679688 -11.664062 1.3125 -11.664062 0.886719 -11.664062 C 0.824219 -11.664062 0.777344 -11.648438 0.761719 -11.539062 C 0.746094 -11.449219 0.808594 -11.449219 0.855469 -11.417969 C 1.144531 -11.203125 1.265625 -10.824219 1.28125 -10.335938 C 1.3125 -9.847656 1.296875 -1.480469 1.296875 -1.480469 C 1.296875 -0.960938 1.238281 -0.535156 0.886719 -0.320312 C 0.6875 -0.199219 0.746094 0.015625 0.914062 -0.015625 C 1.390625 -0.015625 2.488281 0 3.191406 -0.015625 L 9.96875 -0.015625 C 16.289062 -0.015625 21.460938 -2.121094 21.460938 -5.511719 L 21.460938 -5.863281 C 21.460938 -9.25 17.21875 -11.664062 9.386719 -11.664062 Z M 19.308594 -5.511719 C 19.308594 -3.113281 15.128906 -1.984375 10.074219 -1.984375 C 7.632812 -1.984375 5.816406 -2.03125 3.679688 -2.167969 C 3.402344 -2.183594 3.191406 -2.410156 3.191406 -2.671875 L 3.191406 -9.175781 C 3.191406 -9.449219 3.402344 -9.679688 3.679688 -9.691406 C 5.984375 -9.785156 7.296875 -9.707031 9.632812 -9.707031 C 14.683594 -9.707031 19.308594 -8.257812 19.308594 -5.863281 Z M 19.308594 -5.511719 "/></g></g></g></svg>