<svg xmlns="http://www.w3.org/2000/svg" xmlns:xlink="http://www.w3.org/1999/xlink" width="500" zoomAndPan="magnify" viewBox="0 0 375 374.999991" height="500" preserveAspectRatio="xMidYMid meet" version="1.0"><defs><clipPath id="738c6d98d0"><path d="M 112.5 187.5 L 262.5 187.5 L 262.5 305.25 L 112.5 305.25 Z M 112.5 187.5 " clip-rule="nonzero"/></clipPath><clipPath id="6b192f96cc"><path d="M 128 294 L 262.292969 294 L 262.292969 349 L 128 349 Z M 128 294 " clip-rule="nonzero"/></clipPath></defs><g clip-path="url(#738c6d98d0)"><path fill="#ffffff" d="M 251.726562 187.5 L 123.273438 187.5 C 117.363281 187.5 112.566406 192.296875 112.566406 198.203125 L 112.566406 294.546875 C 112.566406 300.453125 117.363281 305.25 123.273438 305.25 L 251.726562 305.25 C 257.636719 305.25 262.433594 300.453125 262.433594 294.546875 L 262.433594 198.203125 C 262.433594 192.296875 257.636719 187.5 251.726562 187.5 Z M 251.726562 294.546875 L 123.273438 294.546875 L 123.273438 198.203125 L 251.726562 198.203125 Z M 251.726562 294.546875 " fill-opacity="1" fill-rule="nonzero"/></g><path fill="#ffffff" d="M 155.386719 219.613281 C 155.386719 220.316406 155.316406 221.011719 155.179688 221.703125 C 155.042969 222.390625 154.839844 223.0625 154.570312 223.710938 C 154.300781 224.359375 153.972656 224.976562 153.582031 225.5625 C 153.191406 226.144531 152.75 226.6875 152.25 227.183594 C 151.753906 227.679688 151.214844 228.125 150.628906 228.515625 C 150.042969 228.90625 149.425781 229.234375 148.777344 229.503906 C 148.128906 229.773438 147.460938 229.976562 146.769531 230.113281 C 146.082031 230.25 145.382812 230.316406 144.683594 230.316406 C 143.980469 230.316406 143.28125 230.25 142.59375 230.113281 C 141.902344 229.976562 141.234375 229.773438 140.585938 229.503906 C 139.9375 229.234375 139.320312 228.90625 138.734375 228.515625 C 138.148438 228.125 137.609375 227.679688 137.113281 227.183594 C 136.617188 226.6875 136.171875 226.144531 135.78125 225.5625 C 135.390625 224.976562 135.0625 224.359375 134.792969 223.710938 C 134.523438 223.0625 134.320312 222.390625 134.183594 221.703125 C 134.046875 221.011719 133.976562 220.316406 133.976562 219.613281 C 133.976562 218.910156 134.046875 218.214844 134.183594 217.523438 C 134.320312 216.835938 134.523438 216.167969 134.792969 215.515625 C 135.0625 214.867188 135.390625 214.25 135.78125 213.667969 C 136.171875 213.082031 136.617188 212.542969 137.113281 212.042969 C 137.609375 211.546875 138.148438 211.105469 138.734375 210.714844 C 139.320312 210.324219 139.9375 209.992188 140.585938 209.722656 C 141.234375 209.453125 141.902344 209.25 142.59375 209.113281 C 143.28125 208.976562 143.980469 208.910156 144.683594 208.910156 C 145.382812 208.910156 146.082031 208.976562 146.769531 209.113281 C 147.460938 209.25 148.128906 209.453125 148.777344 209.722656 C 149.425781 209.992188 150.042969 210.324219 150.628906 210.714844 C 151.214844 211.105469 151.753906 211.546875 152.25 212.042969 C 152.75 212.542969 153.191406 213.082031 153.582031 213.667969 C 153.972656 214.25 154.300781 214.867188 154.570312 215.515625 C 154.839844 216.167969 155.042969 216.835938 155.179688 217.523438 C 155.316406 218.214844 155.386719 218.910156 155.386719 219.613281 Z M 155.386719 219.613281 " fill-opacity="1" fill-rule="nonzero"/><path fill="#ffffff" d="M 198.203125 283.839844 L 241.023438 283.839844 L 203.558594 230.316406 L 179.3125 264.949219 L 166.089844 251.726562 L 133.976562 283.839844 Z M 198.203125 283.839844 " fill-opacity="1" fill-rule="nonzero"/><g clip-path="url(#6b192f96cc)"><path fill="#01fefd" d="M 141.433594 346.886719 C 140.691406 346.640625 139.90625 346.367188 139.203125 346.066406 C 126.550781 340.816406 128.085938 317.695312 130.644531 306.808594 C 130.6875 306.621094 130.742188 306.445312 130.785156 306.257812 C 133.167969 296.464844 145.90625 296.4375 154.0625 295.46875 C 166.382812 293.980469 178.886719 293.890625 191.265625 294.253906 C 203.113281 294.601562 214.960938 294.960938 226.804688 295.335938 C 246.964844 295.972656 261.691406 301.636719 262.320312 324.027344 C 262.511719 327.964844 261.992188 331.808594 260.757812 335.554688 C 256.898438 346.640625 245.171875 347.503906 235.101562 347.140625 C 222.035156 346.664062 156.605469 351.707031 141.433594 346.886719 Z M 141.433594 346.886719 " fill-opacity="1" fill-rule="nonzero"/></g><path fill="#004aad" d="M 149.871094 332.757812 C 148.710938 332.496094 147.535156 332.308594 146.402344 331.945312 C 145.335938 331.574219 144.304688 331.128906 143.300781 330.605469 C 142.882812 330.394531 142.535156 330.09375 142.257812 329.710938 C 142.183594 329.589844 142.132812 329.460938 142.109375 329.320312 C 142.085938 329.179688 142.085938 329.039062 142.117188 328.898438 C 142.148438 328.757812 142.207031 328.632812 142.289062 328.515625 C 142.371094 328.398438 142.472656 328.300781 142.59375 328.222656 C 142.808594 328.042969 143.058594 327.949219 143.339844 327.949219 C 143.621094 327.949219 143.867188 328.042969 144.082031 328.222656 C 145.492188 329.339844 147.089844 330.003906 148.875 330.21875 C 149.589844 330.339844 150.304688 330.339844 151.019531 330.21875 C 151.507812 330.148438 151.949219 329.957031 152.335938 329.652344 C 152.726562 329.34375 153.011719 328.957031 153.195312 328.496094 C 153.375 328.035156 153.429688 327.558594 153.351562 327.070312 C 153.277344 326.578125 153.085938 326.140625 152.773438 325.753906 C 152.269531 325.152344 151.675781 324.65625 150.996094 324.265625 C 149.917969 323.632812 148.761719 323.21875 147.527344 323.023438 C 146.089844 322.792969 144.722656 322.347656 143.429688 321.683594 C 142.941406 321.453125 142.496094 321.160156 142.09375 320.804688 C 141.691406 320.445312 141.347656 320.039062 141.0625 319.582031 C 140.773438 319.125 140.558594 318.636719 140.414062 318.121094 C 140.269531 317.601562 140.199219 317.074219 140.207031 316.535156 C 140.214844 315.140625 140.617188 313.878906 141.417969 312.738281 C 141.820312 312.148438 142.296875 311.632812 142.855469 311.191406 C 143.414062 310.75 144.027344 310.398438 144.691406 310.144531 C 145.355469 309.890625 146.046875 309.742188 146.757812 309.699219 C 147.46875 309.652344 148.167969 309.71875 148.859375 309.890625 C 149.964844 310.160156 150.878906 310.738281 151.597656 311.625 C 151.878906 311.960938 152.035156 312.347656 152.070312 312.785156 C 152.105469 313.21875 152.011719 313.625 151.792969 314.003906 C 151.683594 314.203125 151.527344 314.351562 151.320312 314.449219 C 151.113281 314.542969 150.898438 314.566406 150.675781 314.519531 C 150.453125 314.464844 150.269531 314.347656 150.128906 314.164062 C 149.988281 313.980469 149.921875 313.773438 149.929688 313.542969 C 149.921875 313.480469 149.921875 313.417969 149.929688 313.355469 C 149.960938 313.179688 149.933594 313.015625 149.847656 312.859375 C 149.757812 312.703125 149.628906 312.59375 149.460938 312.53125 C 148.992188 312.269531 148.496094 312.078125 147.972656 311.949219 C 147.667969 311.910156 147.359375 311.898438 147.046875 311.917969 C 146.738281 311.933594 146.433594 311.980469 146.132812 312.058594 C 145.832031 312.132812 145.539062 312.238281 145.257812 312.367188 C 144.976562 312.5 144.710938 312.65625 144.457031 312.835938 C 144.207031 313.019531 143.972656 313.222656 143.761719 313.449219 C 143.546875 313.675781 143.355469 313.917969 143.1875 314.179688 C 143.023438 314.441406 142.882812 314.714844 142.765625 315.003906 C 142.652344 315.292969 142.5625 315.589844 142.503906 315.894531 C 142.421875 316.242188 142.394531 316.59375 142.429688 316.949219 C 142.460938 317.308594 142.554688 317.648438 142.703125 317.972656 C 142.851562 318.300781 143.050781 318.589844 143.300781 318.851562 C 143.546875 319.109375 143.832031 319.320312 144.148438 319.480469 C 145.074219 319.949219 146.03125 320.320312 147.03125 320.597656 C 148.042969 320.910156 149.105469 321.074219 150.125 321.386719 C 151.4375 321.777344 152.609375 322.429688 153.636719 323.335938 C 154.066406 323.675781 154.433594 324.070312 154.738281 324.527344 C 155.042969 324.980469 155.273438 325.46875 155.421875 325.996094 C 155.570312 326.523438 155.636719 327.058594 155.617188 327.605469 C 155.601562 328.152344 155.496094 328.683594 155.3125 329.199219 C 155.109375 329.707031 154.839844 330.171875 154.496094 330.597656 C 154.152344 331.023438 153.757812 331.386719 153.304688 331.691406 C 152.851562 331.996094 152.363281 332.230469 151.839844 332.386719 C 151.316406 332.542969 150.78125 332.621094 150.238281 332.613281 C 150.109375 332.613281 149.984375 332.613281 149.855469 332.613281 Z M 149.871094 332.757812 " fill-opacity="1" fill-rule="nonzero"/><path fill="#004aad" d="M 160.707031 320.089844 C 160.898438 317.441406 161.070312 315.164062 161.242188 312.878906 C 161.242188 312.691406 161.265625 312.507812 161.308594 312.324219 C 161.363281 312.101562 161.480469 311.921875 161.660156 311.785156 C 161.839844 311.644531 162.042969 311.578125 162.269531 311.578125 C 162.496094 311.570312 162.699219 311.636719 162.875 311.777344 C 163.054688 311.917969 163.164062 312.097656 163.207031 312.324219 C 163.253906 312.757812 163.253906 313.195312 163.207031 313.632812 C 162.902344 317.804688 162.988281 321.96875 163.460938 326.125 C 163.539062 327.125 163.882812 328.019531 164.5 328.8125 C 165.3125 329.765625 165.773438 329.757812 166.464844 328.738281 C 166.703125 328.371094 166.917969 327.988281 167.105469 327.59375 C 168.460938 324.738281 169.453125 321.761719 170.082031 318.664062 C 170.542969 316.742188 170.980469 314.816406 171.4375 312.886719 C 171.484375 312.609375 171.558594 312.339844 171.660156 312.078125 C 171.757812 311.792969 171.9375 311.578125 172.203125 311.4375 C 172.464844 311.292969 172.746094 311.257812 173.035156 311.332031 C 173.300781 311.414062 173.511719 311.570312 173.660156 311.804688 C 173.808594 312.039062 173.863281 312.292969 173.824219 312.566406 C 173.816406 312.695312 173.796875 312.816406 173.765625 312.941406 C 172.945312 316.289062 172.15625 319.636719 171.292969 322.984375 C 170.726562 325.085938 169.929688 327.097656 168.898438 329.011719 C 168.597656 329.601562 168.226562 330.144531 167.789062 330.644531 C 166.472656 332.132812 164.875 332.167969 163.398438 330.875 C 162.800781 330.34375 162.320312 329.71875 161.953125 329.007812 C 161.589844 328.292969 161.367188 327.539062 161.285156 326.742188 C 161.027344 324.4375 160.878906 322.09375 160.707031 320.089844 Z M 160.707031 320.089844 " fill-opacity="1" fill-rule="nonzero"/><path fill="#004aad" d="M 212.070312 321.476562 L 215.292969 321.089844 C 215.574219 321.042969 215.851562 321.027344 216.136719 321.042969 C 216.414062 321.058594 216.652344 321.164062 216.851562 321.359375 C 217.050781 321.554688 217.164062 321.792969 217.183594 322.070312 C 217.191406 322.214844 217.171875 322.355469 217.121094 322.488281 C 217.070312 322.625 216.996094 322.746094 216.898438 322.851562 C 216.800781 322.957031 216.6875 323.039062 216.554688 323.097656 C 216.425781 323.160156 216.285156 323.191406 216.140625 323.195312 C 215.339844 323.285156 214.519531 323.320312 213.710938 323.402344 C 213.152344 323.460938 212.59375 323.542969 211.960938 323.625 C 211.730469 326.105469 211.507812 328.542969 211.507812 331.113281 C 212.546875 330.976562 213.472656 330.828125 214.402344 330.746094 C 215.464844 330.648438 216.53125 330.597656 217.59375 330.566406 C 218.261719 330.566406 218.621094 330.828125 218.730469 331.3125 C 218.792969 331.597656 218.753906 331.867188 218.613281 332.121094 C 218.46875 332.378906 218.261719 332.554688 217.988281 332.652344 C 217.691406 332.746094 217.382812 332.792969 217.074219 332.792969 C 215.441406 332.914062 213.8125 332.964844 212.191406 333.144531 C 211.398438 333.203125 210.636719 333.078125 209.90625 332.769531 C 209.632812 332.65625 209.421875 332.464844 209.285156 332.199219 C 209.144531 331.9375 209.105469 331.65625 209.164062 331.363281 C 209.238281 329.929688 209.296875 328.484375 209.402344 327.042969 C 209.609375 324.066406 209.816406 321.089844 210.078125 318.113281 C 210.234375 316.332031 210.472656 314.554688 210.738281 312.792969 C 210.839844 312.257812 211.039062 311.761719 211.335938 311.304688 C 211.53125 310.992188 211.796875 310.753906 212.128906 310.589844 C 212.457031 310.425781 212.804688 310.359375 213.171875 310.386719 C 214.773438 310.386719 216.367188 310.246094 217.964844 310.171875 C 218.28125 310.152344 218.59375 310.152344 218.910156 310.171875 C 219.179688 310.175781 219.417969 310.265625 219.617188 310.445312 C 219.820312 310.625 219.941406 310.847656 219.976562 311.117188 C 220 311.378906 219.945312 311.617188 219.804688 311.839844 C 219.667969 312.0625 219.476562 312.21875 219.230469 312.308594 C 218.902344 312.414062 218.5625 312.464844 218.21875 312.464844 C 216.871094 312.464844 215.515625 312.464844 214.171875 312.515625 C 213.769531 312.515625 213.367188 312.566406 212.875 312.597656 C 212.332031 315.492188 212.347656 318.402344 212.070312 321.476562 Z M 212.070312 321.476562 " fill-opacity="1" fill-rule="nonzero"/><path fill="#004aad" d="M 177.246094 323.328125 C 177.277344 321.15625 177.664062 319.050781 178.410156 317.007812 C 179.152344 314.96875 180.210938 313.105469 181.585938 311.421875 C 182.105469 310.730469 182.742188 310.175781 183.5 309.757812 C 184.253906 309.34375 185.0625 309.097656 185.925781 309.027344 C 186.496094 308.96875 187.050781 309.035156 187.589844 309.230469 C 188.128906 309.425781 188.601562 309.726562 189.003906 310.136719 C 189.507812 310.617188 189.773438 311.203125 189.800781 311.898438 C 189.835938 312.152344 189.785156 312.390625 189.640625 312.605469 C 189.5 312.820312 189.304688 312.960938 189.058594 313.03125 C 188.816406 313.078125 188.585938 313.039062 188.371094 312.917969 C 188.160156 312.792969 188.011719 312.617188 187.933594 312.382812 C 187.359375 311.191406 186.675781 310.847656 185.46875 311.363281 C 184.777344 311.652344 184.171875 312.070312 183.648438 312.605469 C 182.195312 314.207031 181.132812 316.039062 180.46875 318.097656 C 179.40625 321.015625 179.214844 323.992188 179.898438 327.027344 C 179.960938 327.335938 180.046875 327.636719 180.148438 327.933594 C 180.238281 328.261719 180.375 328.566406 180.5625 328.851562 C 180.753906 329.132812 180.980469 329.378906 181.25 329.585938 C 181.519531 329.792969 181.8125 329.953125 182.136719 330.0625 C 182.457031 330.175781 182.785156 330.230469 183.125 330.234375 C 184.675781 330.367188 186.195312 330.203125 187.679688 329.734375 C 188.425781 329.488281 188.878906 329.636719 189.167969 330.136719 C 189.296875 330.402344 189.320312 330.679688 189.238281 330.964844 C 189.15625 331.246094 188.988281 331.46875 188.738281 331.625 C 188.496094 331.832031 188.222656 331.980469 187.917969 332.070312 C 186.074219 332.5625 184.210938 332.671875 182.324219 332.40625 C 181.8125 332.339844 181.324219 332.199219 180.855469 331.984375 C 180.386719 331.773438 179.960938 331.5 179.574219 331.160156 C 179.1875 330.820312 178.855469 330.433594 178.585938 329.996094 C 178.3125 329.558594 178.109375 329.09375 177.976562 328.597656 C 177.460938 326.878906 177.21875 325.121094 177.246094 323.328125 Z M 177.246094 323.328125 " fill-opacity="1" fill-rule="nonzero"/><path fill="#004aad" d="M 193.179688 322.277344 C 193.167969 320.121094 193.566406 318.039062 194.378906 316.035156 C 194.972656 314.648438 195.796875 313.40625 196.839844 312.316406 C 197.21875 311.9375 197.628906 311.601562 198.074219 311.304688 C 198.359375 311.117188 198.65625 310.964844 198.972656 310.84375 C 199.289062 310.722656 199.613281 310.636719 199.945312 310.585938 C 200.28125 310.535156 200.617188 310.519531 200.953125 310.539062 C 201.292969 310.558594 201.621094 310.613281 201.949219 310.707031 C 202.273438 310.796875 202.585938 310.921875 202.882812 311.078125 C 203.183594 311.234375 203.460938 311.421875 203.722656 311.640625 C 203.980469 311.855469 204.214844 312.097656 204.421875 312.367188 C 204.628906 312.632812 204.804688 312.917969 204.949219 313.222656 C 205.113281 313.453125 205.175781 313.703125 205.136719 313.984375 C 205.09375 314.261719 204.964844 314.484375 204.742188 314.660156 C 204.621094 314.734375 204.488281 314.78125 204.347656 314.804688 C 204.207031 314.828125 204.066406 314.824219 203.925781 314.789062 C 203.789062 314.757812 203.660156 314.699219 203.542969 314.617188 C 203.425781 314.53125 203.332031 314.429688 203.253906 314.308594 C 203.113281 314.136719 203.007812 313.945312 202.867188 313.773438 C 202.667969 313.484375 202.417969 313.246094 202.121094 313.0625 C 201.820312 312.875 201.496094 312.761719 201.148438 312.710938 C 200.800781 312.664062 200.457031 312.6875 200.117188 312.785156 C 199.78125 312.882812 199.476562 313.042969 199.207031 313.269531 C 198.730469 313.628906 198.304688 314.042969 197.933594 314.511719 C 196.527344 316.269531 195.746094 318.273438 195.597656 320.523438 C 195.398438 322.347656 195.492188 324.15625 195.878906 325.949219 C 196.113281 326.9375 196.53125 327.839844 197.136719 328.65625 C 197.425781 329.078125 197.796875 329.414062 198.246094 329.660156 C 198.695312 329.902344 199.179688 330.035156 199.691406 330.046875 C 200.316406 330.046875 200.941406 330.046875 201.566406 330.046875 C 201.878906 330.046875 202.199219 330.046875 202.511719 330.046875 C 202.789062 330.046875 203.03125 330.140625 203.242188 330.320312 C 203.453125 330.503906 203.578125 330.730469 203.617188 331.007812 C 203.640625 331.304688 203.558594 331.566406 203.378906 331.800781 C 203.195312 332.035156 202.957031 332.175781 202.667969 332.226562 C 202.234375 332.300781 201.796875 332.339844 201.355469 332.355469 C 197.589844 332.621094 195.351562 331.269531 193.914062 327.292969 C 193.648438 326.488281 193.472656 325.660156 193.378906 324.816406 C 193.246094 323.992188 193.230469 323.140625 193.179688 322.277344 Z M 193.179688 322.277344 " fill-opacity="1" fill-rule="nonzero"/><path fill="#004aad" d="M 227.898438 331.347656 C 226.511719 331.351562 225.238281 330.976562 224.074219 330.21875 C 223.726562 330 223.449219 329.714844 223.242188 329.363281 C 223.164062 329.234375 223.113281 329.09375 223.089844 328.945312 C 223.066406 328.792969 223.074219 328.644531 223.113281 328.5 C 223.148438 328.351562 223.210938 328.21875 223.304688 328.097656 C 223.394531 327.976562 223.503906 327.875 223.636719 327.800781 C 223.757812 327.714844 223.894531 327.652344 224.042969 327.621094 C 224.1875 327.585938 224.335938 327.582031 224.484375 327.605469 C 224.632812 327.628906 224.773438 327.679688 224.902344 327.761719 C 225.03125 327.839844 225.140625 327.9375 225.226562 328.0625 C 225.675781 328.511719 226.210938 328.820312 226.828125 328.984375 C 227.441406 329.148438 228.058594 329.144531 228.671875 328.976562 C 229.285156 328.878906 229.597656 328.351562 229.804688 327.808594 C 230.058594 327.21875 230.160156 326.601562 230.113281 325.964844 C 230.066406 325.324219 229.875 324.730469 229.535156 324.183594 C 228.984375 323.347656 228.351562 322.578125 227.640625 321.878906 C 227.015625 321.222656 226.269531 320.679688 225.601562 320.070312 C 225.136719 319.671875 224.753906 319.207031 224.449219 318.679688 C 224.144531 318.152344 223.933594 317.585938 223.820312 316.988281 C 223.703125 316.390625 223.691406 315.789062 223.777344 315.183594 C 223.867188 314.582031 224.050781 314.007812 224.332031 313.464844 C 224.613281 312.925781 224.972656 312.445312 225.417969 312.023438 C 225.859375 311.605469 226.359375 311.269531 226.914062 311.019531 C 227.472656 310.769531 228.050781 310.617188 228.660156 310.5625 C 229.269531 310.507812 229.867188 310.554688 230.460938 310.699219 C 230.671875 310.75 230.871094 310.835938 231.054688 310.960938 C 231.269531 311.078125 231.417969 311.253906 231.503906 311.484375 C 231.589844 311.714844 231.59375 311.945312 231.507812 312.171875 C 231.417969 312.402344 231.261719 312.574219 231.046875 312.6875 C 230.832031 312.804688 230.601562 312.839844 230.363281 312.792969 C 229.933594 312.707031 229.503906 312.664062 229.066406 312.664062 C 228.46875 312.667969 227.921875 312.835938 227.425781 313.167969 C 226.929688 313.5 226.566406 313.945312 226.335938 314.496094 C 225.839844 315.761719 225.792969 317.027344 226.84375 318.089844 C 227.347656 318.59375 227.929688 319.035156 228.441406 319.539062 C 229.304688 320.316406 230.113281 321.148438 230.859375 322.035156 C 231.246094 322.488281 231.5625 322.988281 231.8125 323.535156 C 232.058594 324.078125 232.226562 324.648438 232.316406 325.238281 C 232.402344 325.832031 232.410156 326.421875 232.332031 327.015625 C 232.257812 327.609375 232.101562 328.179688 231.867188 328.730469 C 231.726562 329.136719 231.527344 329.511719 231.265625 329.851562 C 231.003906 330.195312 230.691406 330.484375 230.332031 330.71875 C 229.972656 330.957031 229.585938 331.128906 229.167969 331.238281 C 228.75 331.347656 228.328125 331.382812 227.898438 331.347656 Z M 227.898438 331.347656 " fill-opacity="1" fill-rule="nonzero"/><path fill="#004aad" d="M 241.734375 331.574219 C 240.285156 331.546875 239 331.082031 237.871094 330.175781 C 237.601562 329.953125 237.410156 329.675781 237.289062 329.347656 C 237.195312 329.058594 237.207031 328.769531 237.324219 328.488281 C 237.445312 328.207031 237.640625 327.996094 237.914062 327.859375 C 238.042969 327.777344 238.183594 327.71875 238.335938 327.691406 C 238.488281 327.667969 238.636719 327.671875 238.789062 327.707031 C 238.9375 327.742188 239.074219 327.804688 239.199219 327.894531 C 239.320312 327.988281 239.421875 328.097656 239.5 328.230469 C 239.757812 328.621094 240.101562 328.90625 240.53125 329.085938 C 240.964844 329.265625 241.410156 329.3125 241.867188 329.222656 C 242.074219 329.203125 242.269531 329.140625 242.453125 329.039062 C 242.636719 328.9375 242.789062 328.804688 242.917969 328.636719 C 243.042969 328.46875 243.128906 328.285156 243.175781 328.078125 C 243.226562 327.875 243.230469 327.671875 243.191406 327.464844 C 243.097656 326.390625 242.761719 325.398438 242.179688 324.488281 C 241.367188 323.253906 240.503906 322.0625 239.695312 320.835938 C 239.21875 320.171875 238.800781 319.472656 238.445312 318.738281 C 238.15625 318.09375 237.988281 317.417969 237.941406 316.714844 C 237.898438 316.011719 237.980469 315.320312 238.183594 314.648438 C 238.390625 313.972656 238.707031 313.355469 239.136719 312.792969 C 239.5625 312.234375 240.078125 311.765625 240.675781 311.390625 C 241.386719 310.957031 242.15625 310.714844 242.984375 310.664062 C 243.816406 310.617188 244.609375 310.761719 245.363281 311.109375 C 245.652344 311.242188 245.886719 311.441406 246.0625 311.703125 C 246.207031 311.882812 246.277344 312.085938 246.277344 312.316406 C 246.277344 312.542969 246.207031 312.746094 246.0625 312.925781 C 245.921875 313.085938 245.75 313.1875 245.542969 313.234375 C 245.335938 313.285156 245.136719 313.265625 244.941406 313.1875 C 244.628906 313.050781 244.308594 312.9375 243.980469 312.851562 C 243.703125 312.8125 243.425781 312.808594 243.148438 312.839844 C 242.871094 312.871094 242.601562 312.933594 242.34375 313.03125 C 242.082031 313.125 241.835938 313.253906 241.605469 313.410156 C 241.375 313.570312 241.167969 313.75 240.984375 313.960938 C 240.796875 314.167969 240.640625 314.398438 240.511719 314.644531 C 240.382812 314.890625 240.289062 315.152344 240.222656 315.421875 C 240.160156 315.695312 240.128906 315.96875 240.132812 316.246094 C 240.136719 316.527344 240.171875 316.800781 240.246094 317.070312 C 240.460938 317.792969 240.78125 318.464844 241.210938 319.085938 C 241.957031 320.300781 242.871094 321.445312 243.675781 322.644531 C 244.558594 323.929688 245.125 325.34375 245.371094 326.886719 C 245.460938 327.355469 245.46875 327.832031 245.382812 328.304688 C 245.300781 328.777344 245.132812 329.222656 244.886719 329.632812 C 244.636719 330.046875 244.324219 330.398438 243.945312 330.695312 C 243.566406 330.992188 243.144531 331.210938 242.683594 331.347656 C 242.371094 331.441406 242.054688 331.515625 241.734375 331.574219 Z M 241.734375 331.574219 " fill-opacity="1" fill-rule="nonzero"/></svg>