<svg xmlns="http://www.w3.org/2000/svg" xmlns:xlink="http://www.w3.org/1999/xlink" width="500" zoomAndPan="magnify" viewBox="0 0 375 149.999998" height="200" preserveAspectRatio="xMidYMid meet" version="1.0"><defs><g/></defs><g fill="#00fefb" fill-opacity="1"><g transform="translate(111.1499, 129.450159)"><g><path d="M 23.328125 0 L 19.859375 0 L 15.078125 -15.6875 L 10.265625 0 L 6.75 0 L 0.09375 -20.109375 L 3.734375 -20.109375 L 8.625 -3.765625 L 13.46875 -20.078125 L 16.8125 -20.109375 L 21.6875 -3.765625 L 26.546875 -20.109375 L 30.0625 -20.109375 Z M 23.328125 0 "/></g></g></g><g fill="#00fefb" fill-opacity="1"><g transform="translate(140.917738, 129.450159)"><g><path d="M 17.015625 -17.0625 L 6.03125 -17.0625 L 6.03125 -11.640625 L 15.859375 -11.640625 L 15.859375 -8.59375 L 6.03125 -8.59375 L 6.03125 -3.046875 L 17.359375 -3.046875 L 17.359375 0 L 2.640625 0 L 2.640625 -20.109375 L 17.015625 -20.109375 Z M 17.015625 -17.0625 "/></g></g></g><g fill="#00fefb" fill-opacity="1"><g transform="translate(159.76687, 129.450159)"><g><path d="M 6.03125 -3.078125 L 14.734375 -3.078125 L 14.734375 0 L 2.640625 0 L 2.640625 -20.109375 L 6.03125 -20.109375 Z M 6.03125 -3.078125 "/></g></g></g><g fill="#00fefb" fill-opacity="1"><g transform="translate(175.11052, 129.450159)"><g><path d="M 11.546875 -20.203125 C 12.960938 -20.203125 14.347656 -19.925781 15.703125 -19.375 C 17.054688 -18.832031 18.21875 -18.070312 19.1875 -17.09375 L 17.21875 -14.625 C 16.488281 -15.40625 15.625 -16.023438 14.625 -16.484375 C 13.625 -16.953125 12.617188 -17.1875 11.609375 -17.1875 C 9.597656 -17.1875 7.894531 -16.5 6.5 -15.125 C 5.113281 -13.757812 4.421875 -12.085938 4.421875 -10.109375 C 4.421875 -8.117188 5.113281 -6.4375 6.5 -5.0625 C 7.894531 -3.695312 9.597656 -3.015625 11.609375 -3.015625 C 13.691406 -3.015625 15.5625 -3.8125 17.21875 -5.40625 L 19.21875 -3.15625 C 18.1875 -2.144531 16.976562 -1.34375 15.59375 -0.75 C 14.21875 -0.15625 12.832031 0.140625 11.4375 0.140625 C 8.488281 0.140625 6.007812 -0.835938 4 -2.796875 C 1.988281 -4.765625 0.984375 -7.191406 0.984375 -10.078125 C 0.984375 -12.941406 2 -15.34375 4.03125 -17.28125 C 6.070312 -19.226562 8.578125 -20.203125 11.546875 -20.203125 Z M 11.546875 -20.203125 "/></g></g></g><g fill="#00fefb" fill-opacity="1"><g transform="translate(195.137726, 129.450159)"><g><path d="M 4.046875 -17.28125 C 6.097656 -19.226562 8.628906 -20.203125 11.640625 -20.203125 C 14.648438 -20.203125 17.175781 -19.226562 19.21875 -17.28125 C 21.269531 -15.34375 22.296875 -12.9375 22.296875 -10.0625 C 22.296875 -7.1875 21.269531 -4.765625 19.21875 -2.796875 C 17.175781 -0.835938 14.648438 0.140625 11.640625 0.140625 C 8.628906 0.140625 6.097656 -0.835938 4.046875 -2.796875 C 2.003906 -4.765625 0.984375 -7.1875 0.984375 -10.0625 C 0.984375 -12.9375 2.003906 -15.34375 4.046875 -17.28125 Z M 11.671875 -17.15625 C 9.671875 -17.15625 7.960938 -16.46875 6.546875 -15.09375 C 5.128906 -13.726562 4.421875 -12.046875 4.421875 -10.046875 C 4.421875 -8.054688 5.132812 -6.367188 6.5625 -4.984375 C 7.988281 -3.597656 9.6875 -2.90625 11.65625 -2.90625 C 13.632812 -2.90625 15.320312 -3.597656 16.71875 -4.984375 C 18.125 -6.367188 18.828125 -8.054688 18.828125 -10.046875 C 18.828125 -12.046875 18.125 -13.726562 16.71875 -15.09375 C 15.320312 -16.46875 13.640625 -17.15625 11.671875 -17.15625 Z M 11.671875 -17.15625 "/></g></g></g><g fill="#00fefb" fill-opacity="1"><g transform="translate(218.41181, 129.450159)"><g><path d="M 23.90625 0 L 20.78125 0 L 20.75 -15.03125 L 14.390625 -2.09375 L 12.1875 -2.09375 L 5.828125 -15.03125 L 5.828125 0 L 2.640625 0 L 2.640625 -20.109375 L 6.671875 -20.109375 L 13.296875 -6.75 L 19.90625 -20.109375 L 23.90625 -20.109375 Z M 23.90625 0 "/></g></g></g><g fill="#00fefb" fill-opacity="1"><g transform="translate(244.990236, 129.450159)"><g><path d="M 17.015625 -17.0625 L 6.03125 -17.0625 L 6.03125 -11.640625 L 15.859375 -11.640625 L 15.859375 -8.59375 L 6.03125 -8.59375 L 6.03125 -3.046875 L 17.359375 -3.046875 L 17.359375 0 L 2.640625 0 L 2.640625 -20.109375 L 17.015625 -20.109375 Z M 17.015625 -17.0625 "/></g></g></g><g fill="#ffffff" fill-opacity="1"><g transform="translate(124.667889, 144.398707)"><g><path d="M 7.0625 -7.359375 L 4.3125 -7.359375 L 4.3125 0 L 2.84375 0 L 2.84375 -7.359375 L 0.109375 -7.359375 L 0.109375 -8.671875 L 7.0625 -8.671875 Z M 7.0625 -7.359375 "/></g></g></g><g fill="#ffffff" fill-opacity="1"><g transform="translate(136.634935, 144.398707)"><g><path d="M 1.75 -7.4375 C 2.632812 -8.28125 3.722656 -8.703125 5.015625 -8.703125 C 6.316406 -8.703125 7.40625 -8.28125 8.28125 -7.4375 C 9.164062 -6.601562 9.609375 -5.566406 9.609375 -4.328125 C 9.609375 -3.097656 9.164062 -2.054688 8.28125 -1.203125 C 7.40625 -0.359375 6.316406 0.0625 5.015625 0.0625 C 3.722656 0.0625 2.632812 -0.359375 1.75 -1.203125 C 0.863281 -2.054688 0.421875 -3.097656 0.421875 -4.328125 C 0.421875 -5.566406 0.863281 -6.601562 1.75 -7.4375 Z M 5.03125 -7.390625 C 4.164062 -7.390625 3.425781 -7.09375 2.8125 -6.5 C 2.207031 -5.914062 1.90625 -5.191406 1.90625 -4.328125 C 1.90625 -3.472656 2.210938 -2.742188 2.828125 -2.140625 C 3.441406 -1.546875 4.175781 -1.25 5.03125 -1.25 C 5.882812 -1.25 6.609375 -1.546875 7.203125 -2.140625 C 7.804688 -2.742188 8.109375 -3.472656 8.109375 -4.328125 C 8.109375 -5.191406 7.804688 -5.914062 7.203125 -6.5 C 6.609375 -7.09375 5.882812 -7.390625 5.03125 -7.390625 Z M 5.03125 -7.390625 "/></g></g></g><g fill="#ffffff" fill-opacity="1"><g transform="translate(151.463278, 144.398707)"><g/></g></g><g fill="#ffffff" fill-opacity="1"><g transform="translate(159.454237, 144.398707)"><g><path d="M 10.0625 0 L 8.5625 0 L 6.5 -6.765625 L 4.421875 0 L 2.90625 0 L 0.03125 -8.671875 L 1.609375 -8.671875 L 3.71875 -1.625 L 5.8125 -8.65625 L 7.25 -8.671875 L 9.359375 -1.625 L 11.453125 -8.671875 L 12.953125 -8.671875 Z M 10.0625 0 "/></g></g></g><g fill="#ffffff" fill-opacity="1"><g transform="translate(177.081946, 144.398707)"><g><path d="M 7.328125 -7.359375 L 2.609375 -7.359375 L 2.609375 -5.015625 L 6.84375 -5.015625 L 6.84375 -3.703125 L 2.609375 -3.703125 L 2.609375 -1.3125 L 7.484375 -1.3125 L 7.484375 0 L 1.140625 0 L 1.140625 -8.671875 L 7.328125 -8.671875 Z M 7.328125 -7.359375 "/></g></g></g><g fill="#ffffff" fill-opacity="1"><g transform="translate(190.002756, 144.398707)"><g><path d="M 1.140625 -8.671875 L 4.90625 -8.671875 C 5.800781 -8.671875 6.507812 -8.476562 7.03125 -8.09375 C 7.550781 -7.707031 7.8125 -7.175781 7.8125 -6.5 C 7.8125 -6.019531 7.675781 -5.609375 7.40625 -5.265625 C 7.132812 -4.921875 6.765625 -4.691406 6.296875 -4.578125 C 6.867188 -4.472656 7.320312 -4.226562 7.65625 -3.84375 C 7.988281 -3.457031 8.15625 -2.96875 8.15625 -2.375 C 8.15625 -1.632812 7.875 -1.050781 7.3125 -0.625 C 6.75 -0.207031 5.976562 0 5 0 L 1.140625 0 Z M 2.609375 -7.375 L 2.609375 -5.078125 L 4.828125 -5.078125 C 5.296875 -5.078125 5.660156 -5.179688 5.921875 -5.390625 C 6.179688 -5.597656 6.3125 -5.882812 6.3125 -6.25 C 6.3125 -6.613281 6.179688 -6.890625 5.921875 -7.078125 C 5.660156 -7.273438 5.296875 -7.375 4.828125 -7.375 Z M 2.609375 -3.796875 L 2.609375 -1.296875 L 4.828125 -1.296875 C 5.410156 -1.296875 5.859375 -1.40625 6.171875 -1.625 C 6.492188 -1.84375 6.65625 -2.15625 6.65625 -2.5625 C 6.65625 -2.945312 6.492188 -3.25 6.171875 -3.46875 C 5.847656 -3.6875 5.398438 -3.796875 4.828125 -3.796875 Z M 2.609375 -3.796875 "/></g></g></g><g fill="#ffffff" fill-opacity="1"><g transform="translate(203.542894, 144.398707)"><g><path d="M 3.984375 -8.734375 C 5.109375 -8.734375 6.125 -8.4375 7.03125 -7.84375 L 6.421875 -6.546875 C 5.535156 -7.085938 4.6875 -7.359375 3.875 -7.359375 C 3.4375 -7.359375 3.09375 -7.28125 2.84375 -7.125 C 2.59375 -6.96875 2.46875 -6.742188 2.46875 -6.453125 C 2.46875 -6.160156 2.582031 -5.914062 2.8125 -5.71875 C 3.039062 -5.519531 3.328125 -5.367188 3.671875 -5.265625 C 4.023438 -5.171875 4.40625 -5.050781 4.8125 -4.90625 C 5.21875 -4.769531 5.59375 -4.617188 5.9375 -4.453125 C 6.28125 -4.296875 6.566406 -4.046875 6.796875 -3.703125 C 7.023438 -3.359375 7.140625 -2.941406 7.140625 -2.453125 C 7.140625 -1.691406 6.832031 -1.082031 6.21875 -0.625 C 5.613281 -0.175781 4.828125 0.046875 3.859375 0.046875 C 3.203125 0.046875 2.5625 -0.0703125 1.9375 -0.3125 C 1.320312 -0.5625 0.785156 -0.898438 0.328125 -1.328125 L 0.953125 -2.59375 C 1.390625 -2.1875 1.867188 -1.875 2.390625 -1.65625 C 2.921875 -1.4375 3.421875 -1.328125 3.890625 -1.328125 C 4.398438 -1.328125 4.796875 -1.421875 5.078125 -1.609375 C 5.367188 -1.796875 5.515625 -2.050781 5.515625 -2.375 C 5.515625 -2.675781 5.394531 -2.925781 5.15625 -3.125 C 4.925781 -3.332031 4.640625 -3.484375 4.296875 -3.578125 C 3.953125 -3.671875 3.578125 -3.785156 3.171875 -3.921875 C 2.765625 -4.054688 2.390625 -4.195312 2.046875 -4.34375 C 1.703125 -4.5 1.410156 -4.742188 1.171875 -5.078125 C 0.941406 -5.421875 0.828125 -5.832031 0.828125 -6.3125 C 0.828125 -7.050781 1.113281 -7.640625 1.6875 -8.078125 C 2.269531 -8.515625 3.035156 -8.734375 3.984375 -8.734375 Z M 3.984375 -8.734375 "/></g></g></g><g fill="#ffffff" fill-opacity="1"><g transform="translate(216.042566, 144.398707)"><g><path d="M 7.328125 -7.359375 L 2.609375 -7.359375 L 2.609375 -5.015625 L 6.84375 -5.015625 L 6.84375 -3.703125 L 2.609375 -3.703125 L 2.609375 -1.3125 L 7.484375 -1.3125 L 7.484375 0 L 1.140625 0 L 1.140625 -8.671875 L 7.328125 -8.671875 Z M 7.328125 -7.359375 "/></g></g></g><g fill="#ffffff" fill-opacity="1"><g transform="translate(228.963376, 144.398707)"><g><path d="M 6.640625 0 L 5.0625 -2.625 C 4.976562 -2.613281 4.84375 -2.609375 4.65625 -2.609375 L 2.609375 -2.609375 L 2.609375 0 L 1.140625 0 L 1.140625 -8.671875 L 4.65625 -8.671875 C 5.757812 -8.671875 6.617188 -8.410156 7.234375 -7.890625 C 7.847656 -7.378906 8.15625 -6.65625 8.15625 -5.71875 C 8.15625 -5.019531 8 -4.429688 7.6875 -3.953125 C 7.375 -3.472656 6.929688 -3.125 6.359375 -2.90625 L 8.296875 0 Z M 2.609375 -3.921875 L 4.65625 -3.921875 C 6.0625 -3.921875 6.765625 -4.503906 6.765625 -5.671875 C 6.765625 -6.796875 6.0625 -7.359375 4.65625 -7.359375 L 2.609375 -7.359375 Z M 2.609375 -3.921875 "/></g></g></g><g fill="#ffffff" fill-opacity="1"><g transform="translate(242.714083, 144.398707)"><g><path d="M 5 0 L 3.5 0 L 0.03125 -8.671875 L 1.609375 -8.671875 L 4.28125 -1.625 L 6.984375 -8.671875 L 8.515625 -8.671875 Z M 5 0 "/></g></g></g></svg>